<svg xmlns="http://www.w3.org/2000/svg" width="256" height="256"><path fill-opacity=".016" d="M0 128.004v128.004l128.25-.254 128.25-.254.254-127.75L257.008 0H0v128.004m.485.496c0 70.4.119 99.053.265 63.672.146-35.38.146-92.98 0-128C.604 29.153.485 58.1.485 128.5" fill="#212121" fill-rule="evenodd"/><path fill-opacity=".366" d="M31.286 4.44C20.862 7.724 11.761 15.694 6.693 25.979L3.5 32.458V221.5l3.097 6.5c6.171 12.95 17.143 21.582 30.547 24.031 3.681.672 36.55.933 94.5.75l88.856-.281 5.653-2.285a43.522 43.522 0 0024.062-24.062l2.285-5.653.281-88.856c.183-57.95-.078-90.819-.75-94.5C249.582 23.74 240.95 12.768 228 6.597L221.5 3.5l-93-.193c-74.927-.156-93.819.064-97.214 1.133m90.983 26.253c.973.254 2.323.237 3-.037.677-.274-.119-.481-1.769-.461-1.65.02-2.204.244-1.231.498m-10 1c.973.254 2.323.237 3-.037.677-.274-.119-.481-1.769-.461-1.65.02-2.204.244-1.231.498M97 34.872C70.599 43.555 50.632 61.28 38.978 86.381c-4.003 8.62-8.037 22.973-7.888 28.059.049 1.683.709-.363 1.466-4.546 6.588-36.388 34.577-66.418 70.736-75.895 3.964-1.039 6.083-1.896 4.708-1.906-1.375-.009-6.325 1.241-11 2.779m-4.295 54.566c-1.84 1.84-2.24 3.562-.827 3.562 1.361 0 3.356-2.798 2.922-4.1-.262-.785-.948-.609-2.095.538M30.336 126c0 4.125.177 5.813.392 3.75.216-2.062.216-5.437 0-7.5-.215-2.062-.392-.375-.392 3.75m.743 12.583c.048 1.165.285 1.402.604.605.289-.722.253-1.585-.079-1.917-.332-.332-.568.258-.525 1.312" fill="#212121" fill-rule="evenodd"/><path fill-opacity=".491" d="M110.66 32.988C98.268 35.221 83.355 41.291 73 48.317 66.381 52.808 54.402 64.629 49.508 71.5c-17.003 23.868-22.183 56.402-13.353 83.861 9.668 30.063 33.948 53.677 64.896 63.116 4.647 1.417 6.649 2.302 4.449 1.966-13.143-2.004-30.885-11.028-45.5-23.144-4.441-3.681-4.461-3.686-1.5-.421 5.163 5.694 18.272 14.956 27.195 19.215 14.297 6.824 25.233 9.203 42.305 9.203 12.509 0 15.873-.365 24.5-2.653a98.719 98.719 0 0070.143-70.143c2.288-8.627 2.653-11.991 2.653-24.5 0-12.378-.375-15.908-2.558-24.12-3.31-12.455-9.248-24.786-16.642-34.565-6.163-8.15-13.24-15.53-11.318-11.804.57 1.106 2.032 2.906 3.248 4 4.003 3.601 10.949 14.158 14.995 22.793 5.334 11.383 5.045 12.421-.402 1.445C199.97 60.263 177.582 41.956 150 34.546c-7.445-2-31.582-2.956-39.34-1.558m139.329 95.534l-.489 92.021-3.297 6.697c-4.188 8.506-10.457 14.775-18.963 18.963l-6.696 3.297-92.022.525-92.022.526 92.5-.026 92.5-.025 6.701-3.174c8.525-4.039 15.086-10.6 19.125-19.125l3.174-6.701.273-71c.15-39.05.145-80.675-.011-92.5-.156-11.825-.504 19.91-.773 70.522M109 54.004c-39.407 9.767-63.492 47.903-55.445 87.788.937 4.645 3.532 11.791 6.53 17.984 4.223 8.722 6.219 11.518 13.203 18.5 16.246 16.241 34.573 23.484 56.712 22.413 32.203-1.558 58.299-22.114 68.158-53.689 3.377-10.815 3.377-30.188-.001-41-6.338-20.287-19.373-36.33-36.792-45.281-16.513-8.486-35.432-10.912-52.365-6.715m18.5 1.914c2.2.439 3.325.874 2.5.967-.825.092-4.15 2.169-7.389 4.615-3.238 2.446-6.229 4.236-6.646 3.979-.416-.258-2.041.214-3.611 1.049l-2.854 1.517 4.5-.523c4.111-.478 3.994-.393-1.347.976-3.216.825-6.323 1.206-6.905.846-.581-.359-.779-.203-.439.347.34.551-1.722 2.083-4.582 3.405-5.439 2.514-14.923 9.665-18.057 13.616-1.007 1.269-2.213 2.07-2.681 1.781-.892-.551-2.409 1.294-2.474 3.007-.052 1.375-3.432 7.5-4.139 7.5-.316 0 .315-1.505 1.4-3.345 1.865-3.161 1.522-3.01-6.233 2.75-4.513 3.352-8.078 6.261-7.922 6.465.157.203 2.504-1.26 5.216-3.25 2.712-1.991 5.258-3.62 5.657-3.62s-2.136 2.095-5.634 4.656c-3.498 2.561-6.711 5.149-7.14 5.75-.43.602-.549-.256-.266-1.906.328-1.909-.065-1.364-1.08 1.5-2.467 6.959-2.988 26.142-.959 35.263 5.382 24.19 23.338 43.75 48.085 52.379 7.3 2.546 9.225 2.788 22 2.768 12.467-.02 14.876-.315 22-2.691 11.507-3.838 19.875-9.095 29-18.219 13.487-13.487 20.164-28.13 21.22-46.537 2.264-39.454-27.95-73.944-66.118-75.478-6.349-.255-7.892-.124-5.102.433m-6 4.214c-5.297 3.966-6.916 5.806-2.5 2.843 5.445-3.655 8.354-5.982 7.385-5.907-.487.038-2.685 1.417-4.885 3.064m.75 6.584c1.513.229 3.987.229 5.5 0 1.512-.229.275-.416-2.75-.416s-4.263.187-2.75.416M95.921 81.938c-2.431 1.616-6.221 4.867-8.421 7.225-2.2 2.357-3.063 3.509-1.919 2.559 1.145-.949 2.27-1.54 2.5-1.313.231.228 3.344-2.231 6.919-5.464 3.575-3.233 6.24-5.893 5.921-5.912-.318-.018-2.568 1.289-5 2.905m-2.682 5.728c-2.268.914-3.509 4.304-2.167 5.921.984 1.186.921 1.347-.34.864-1.013-.389-1.781.128-2.214 1.491-.364 1.148-1.08 1.829-1.59 1.514-1.463-.905-1.083 7.238.517 11.067.795 1.902 2.669 4.682 4.166 6.179l2.721 2.721.995-2.462c2.158-5.339 9.888-20.454 11.918-23.305 1.181-1.659 1.61-2.684.952-2.278-.658.407-1.197.241-1.197-.368 0-.694-1.87-1.024-5-.881-3.012.138-5 .692-5 1.395 0 .641-1.013 2.023-2.25 3.071-2.248 1.903-2.248 1.903-.5-.174 1.76-2.091 2.396-5.489 1-5.342-.412.043-1.318.308-2.011.587m16.72 3.392c-1.197 1.681-2.016 3.153-1.818 3.271.197.118 2.384-.065 4.859-.407 2.475-.342 3.536-.689 2.357-.772-2.191-.153-3.811-2.606-2.801-4.24 1.418-2.294-.654-.581-2.597 2.148m-8.426 14.351c-2.396 5-4.652 10.104-5.012 11.341-1.174 4.028 1.389 2.419 3.584-2.251 2.68-5.701 11.783-14.086 16.985-15.644 5.455-1.635 3.125-2.922-4.895-2.706l-6.305.17-4.357 9.09m-30.909-1.87c-.965 2.514-.681 3.163.498 1.136.584-1.004.851-2.036.593-2.293-.257-.258-.749.263-1.091 1.157m54.929 22.376a1.116 1.116 0 00.362 1.532c.521.322 1.21.159 1.532-.362a1.116 1.116 0 00-.362-1.532 1.116 1.116 0 00-1.532.362m-13.803 95.747c.688.278 1.813.278 2.5 0 .688-.277.125-.504-1.25-.504s-1.937.227-1.25.504" fill="#212121" fill-rule="evenodd"/><path fill-opacity=".667" d="M194 61.5c1.866 1.925 3.617 3.5 3.892 3.5.275 0-1.026-1.575-2.892-3.5-1.866-1.925-3.617-3.5-3.892-3.5-.275 0 1.026 1.575 2.892 3.5m-2.5 10.111l-7 5.294-3.937-3.702c-2.728-2.566-2.268-1.812 1.5 2.457 33.051 37.445 22.716 94.466-21.276 117.385-21.101 10.993-46.854 11.148-68.106.411-13.066-6.601-23.546-16.346-31.138-28.955-3.623-6.016-4.797-6.826-1.969-1.358.865 1.673 1.428 3.16 1.25 3.304-.178.144-3.24 2.362-6.804 4.929l-6.479 4.667-1.854-2.272c-1.818-2.227-1.819-2.209-.087.925.972 1.757 2.204 2.925 2.738 2.595.549-.339.649-.079.23.6-.969 1.566 5.918 10.464 13.821 17.856 10.934 10.228 23.372 17.349 38.314 21.934 8.038 2.467 10.263 2.705 25.797 2.76 14.854.051 17.997-.23 24.895-2.228 33.132-9.596 57.222-33.686 66.818-66.818 1.976-6.822 2.284-10.137 2.268-24.395-.017-14.123-.346-17.637-2.287-24.395-2.838-9.88-7.746-20.583-12.965-28.267-6.005-8.844-5.716-8.786-13.729-2.727M112 69.608c-26.284 7.057-44.035 30-43.985 56.852.045 24.59 14.249 45.817 36.961 55.238 4.603 1.91 5.007 2.259 2.422 2.096-2.191-.139-4.315.764-7.235 3.077-2.928 2.319-4.793 3.11-6.398 2.715-1.246-.307.435.757 3.735 2.365 12.649 6.162 31.307 8.034 46 4.614 14.132-3.289 29.727-13.023 38.554-24.065 10.483-13.112 14.99-25.07 15.642-41.5.251-6.325.017-13.3-.519-15.5-.943-3.865-.979-3.893-1.077-.842-.082 2.608-.884 3.654-4.598 6-3.858 2.437-4.517 3.341-4.629 6.342-.072 1.925-.551.125-1.065-4-1.997-16.037-9.499-31.153-20.118-40.536-6.026-5.324-18.863-11.805-26.489-13.374-7.32-1.506-20.605-1.253-27.201.518m4.46 3.384c-10.43.915-19.306 5.06-27.747 12.96-7.946 7.436-14.017 17.299-13.351 21.689.663 4.369 6.683 16.883 10.955 22.772l3.563 4.912.649-2.912c1.062-4.771 3.666-12.857 4.402-13.671.377-.417-.353 3.362-1.623 8.397-2.596 10.297-2.215 11.682 3.044 11.068 3.385-.395 3.42-.449 2.491-3.813-.518-1.877-.807-5.996-.643-9.153.291-5.569.383-5.737 3.065-5.607 1.684.082 1.977-.043.75-.32-2.13-.479-2.391-1.17-1.41-3.726.332-.867 1.002-1.331 1.488-1.03.486.3.588-.226.226-1.17-.444-1.157-.281-1.483.5-1 .715.442.963.207.648-.612-.706-1.841 7-9.223 8.597-8.236.861.531.992.36.426-.555-.599-.97-.358-1.149.898-.666.944.362 1.468.257 1.165-.233-.788-1.275 4.615-2.945 11.968-3.698 5.701-.584 6.969-.347 12.848 2.404l6.522 3.052-.896-2.358c-.709-1.864-.541-2.439.804-2.742 1.684-.381-3.686-1.655-15.299-3.632-5.591-.952-5.338-.989 3.722-.548l9.723.472-2.041-4.761c-1.123-2.618-2.928-6.195-4.011-7.948-2.011-3.254-8.345-9.327-9.728-9.327-.421 0-3.351 2.304-6.511 5.121-7.394 6.59-8.386 5.808-1.225-.965 2.998-2.836 5.141-5.091 4.761-5.012-.379.079-4.308.461-8.73.848m-5.588 14.758c-1.243 1.586-1.208 1.621.378.378 1.666-1.307 2.195-2.128 1.372-2.128-.207 0-.995.787-1.75 1.75m-3.948 20l-2.424 2.75 2.75-2.424c2.57-2.266 3.209-3.076 2.424-3.076-.179 0-1.416 1.237-2.75 2.75m54.81-.333c-2.622.705-5.014 1.53-5.317 1.833-.303.303.295 3.305 1.328 6.671 1.034 3.367 2.147 5.853 2.475 5.526.703-.703 3.29 8.183 4.208 14.455.569 3.885.464 4.253-.892 3.128-1.362-1.13-1.547-.212-1.632 8.098-.053 5.154-.708 11.622-1.456 14.372l-1.36 5 .435-4.5c1.469-15.178 1.667-20 .818-20-1.347 0-8.493 7.515-7.803 8.205 1.887 1.887-6.662 14.683-11.964 17.908l-3.056 1.858 4.213 1.655c2.317.911 3.995 2.008 3.729 2.438-.266.431-2.841 1.548-5.722 2.482-9.79 3.177-8.626 4.618 1.582 1.959 7.007-1.825 13.726-5.149 15.498-7.666.726-1.03 1.699-1.637 2.165-1.35 1.502.929 12.509-11.057 15.715-17.112 1.711-3.232 3.829-8.321 4.707-11.309 1.79-6.094 2.17-22.426.617-26.511-1.034-2.718-9.331-8.604-11.968-8.49-.855.038-3.699.645-6.32 1.35m12.701-.522c.372.602 1.606 1.592 2.741 2.199 1.48.792 1.874.795 1.389.011-.372-.602-1.606-1.592-2.741-2.199-1.48-.792-1.874-.795-1.389-.011m-62.353 2.952c-.681 1.273-.627 2.208.175 3.01.884.884.739 1.88-.604 4.153-1.889 3.198-1.06 3.78 2.663 1.868 2.827-1.452 7.578-5.865 8.858-8.227.9-1.66.697-1.782-1.991-1.191-1.745.383-3.265.216-3.647-.401-1.051-1.701-4.379-1.22-5.454.788m-39.483 7.909c-.834 11.893.032 15.303 4.421 17.428 1.914.926 5.789 2.092 8.612 2.592l5.131.908-4.426-6.012C82.096 126.91 75 113.474 75 111.204c0-.597-.402-1.335-.894-1.639-.492-.304-1.17 3.382-1.507 8.191m47.376.774c-1.938 2.335.436 4.487 2.582 2.341 1.327-1.326 1.344-1.708.126-2.719-1.107-.918-1.701-.835-2.708.378m40.104 6.053c.048 1.165.285 1.402.604.605.289-.722.253-1.585-.079-1.917-.332-.332-.568.258-.525 1.312m-34.482 1.261c-.346.56-.142 1.319.453 1.687 1.538.95 2.53-.351 1.246-1.635-.718-.718-1.277-.735-1.699-.052m35.482 3.739c.048 1.165.285 1.402.604.605.289-.722.253-1.585-.079-1.917-.332-.332-.568.258-.525 1.312m-30.743 2.984c-.788 2.054.794 3.589 2.568 2.492 1.511-.934.815-4.059-.904-4.059-.585 0-1.333.705-1.664 1.567m24.531 2.204c-.074.401-.186 2.841-.25 5.422l-.117 4.693 2.75-2.63c1.512-1.447 2.75-3.374 2.75-4.283 0-1.611-4.869-4.648-5.133-3.202m-20.285 2.343c-1.478 1.163-2.458 2.344-2.177 2.624.281.281 1.914-.67 3.629-2.114 3.704-3.116 2.43-3.564-1.452-.51m.471 2.322c-1.265 1.525.114 5.564 1.9 5.564 3.681 0 5.316-3.331 2.847-5.8-1.599-1.599-3.294-1.515-4.747.236m66.819 48.314c-1.243 1.586-1.208 1.621.378.378 1.666-1.307 2.195-2.128 1.372-2.128-.207 0-.995.787-1.75 1.75m-6.926 8l-3.446 3.75 3.75-3.446c3.49-3.208 4.21-4.054 3.446-4.054-.167 0-1.854 1.688-3.75 3.75m-8.074 7c-1.243 1.586-1.208 1.621.378.378.963-.755 1.75-1.543 1.75-1.75 0-.823-.821-.294-2.128 1.372" fill="#212121" fill-rule="evenodd"/></svg>